<?xml version="1.0" encoding="utf-8"?>
<!-- Generator: Adobe Illustrator 25.4.1, SVG Export Plug-In . SVG Version: 6.00 Build 0)  -->
<svg version="1.1" id="Layer_1" xmlns="http://www.w3.org/2000/svg" xmlns:xlink="http://www.w3.org/1999/xlink" x="0px" y="0px"
	 viewBox="0 0 600 600" style="enable-background:new 0 0 600 600;" xml:space="preserve">
<style type="text/css">
	.st0{fill:#84D1D7;}
</style>
<circle class="st0" cx="297" cy="300" r="221.25"/>
<g>
	<g>
		<path d="M233.01,247.02v-68.91h15.88c9.6,32.48,11.83,40.29,12.48,43.44h0.26c-0.63-8.67-0.82-20.03-0.82-30.78v-12.65h12.82
			v68.91h-15.65c-9.98-35.82-11.85-42.76-12.56-45.74h-0.29c0.5,8.29,0.76,21.06,0.76,32.33v13.41H233.01z"/>
		<path d="M316.52,217.81h-19.13v16.42h21.65l-1.69,12.79h-34.19v-68.91h34.23v12.95h-20v13.86h19.13V217.81z"/>
		<path d="M333.76,191.06H321.3v-12.95h39.33v12.95h-12.39v55.96h-14.48V191.06z"/>
		<path d="M144.17,369.48l-10.46-68.92H149c1.35,12.81,3.4,35.03,4.1,47.34h0.36c1.76-13.47,4.6-32.83,6.61-47.34h12.27
			c1.79,12.6,4.65,33.08,6.23,46.84h0.45c1.01-13.53,3.43-36.3,4.44-46.84h14.13l-11.28,68.92h-14.6
			c-1.85-12.11-4.51-27.38-6.06-41.18h-0.38c-1.58,13.58-4.52,29.36-6.37,41.18H144.17z"/>
		<path d="M244.72,334.58c0,25.26-6.32,36.19-22.02,36.19c-14.64,0-21.14-11.12-21.14-36.54c0-24.42,7.22-34.94,21.73-34.94
			C238.19,299.3,244.72,310.61,244.72,334.58z M216.72,334.24c0,17.01,1.41,24.09,6.39,24.09c5.26,0,6.45-6.58,6.45-24.09
			c0-16.36-1.25-22.43-6.45-22.43C218.11,311.81,216.72,318.18,216.72,334.24z"/>
		<path d="M266.89,341.28v28.2h-14.33v-68.92h21.33c12.19,0,18.4,6.6,18.4,19.08c0,9.54-4.3,14.01-8.11,15.65
			c4.94,2.41,7.27,6.84,7.27,16.75v2.4c0,7.66,0.28,12.01,0.68,15.03h-14.08c-0.74-2.66-0.99-8.79-0.99-15.53v-2.37
			c0-8.15-1.5-10.3-7.05-10.3H266.89z M266.92,329.42h3.36c5.43,0,7.52-2.14,7.52-8.88c0-5.68-1.84-8.16-6.6-8.16h-4.28V329.42z"/>
		<path d="M299.72,300.56h14.17v28.74c3.04-7.02,9.14-21,12.86-28.74h16.06l-14.23,26.99l14.51,41.93h-15.83l-8.91-28.3l-4.47,7.43
			v20.87h-14.17V300.56z"/>
		<path d="M361.39,300.56v68.92h-14.52v-68.92H361.39z"/>
		<path d="M371.1,369.48v-68.92h15.88c9.6,32.48,11.83,40.29,12.48,43.44h0.26c-0.63-8.67-0.82-20.03-0.82-30.78v-12.65h12.82v68.92
			h-15.65c-9.98-35.82-11.85-42.76-12.56-45.74h-0.29c0.5,8.29,0.76,21.06,0.76,32.33v13.41H371.1z"/>
		<path d="M461.53,369.48h-10.67c-0.25-1.82-0.47-3.54-0.53-5.44c-2.73,5.36-7.44,6.74-12.4,6.74c-12.61,0-18.38-10.31-18.38-35.31
			c0-27.3,8.64-36.13,22.42-36.13c17.85,0,19.28,15.4,19.43,20.77h-14.53c-0.15-3.36-0.58-8.29-5.38-8.29
			c-5.41,0-6.73,7.72-6.73,23.76c0,16.57,1.29,22.76,6.51,22.76c4.41,0,5.73-4.03,5.73-11.46v-4.41h-6.21v-12.43h20.73
			C461.53,330.03,461.53,369.48,461.53,369.48z"/>
	</g>
</g>
</svg>
