<?xml version="1.0" encoding="utf-8"?>
<!-- Generator: Adobe Illustrator 25.4.1, SVG Export Plug-In . SVG Version: 6.00 Build 0)  -->
<svg version="1.1" id="Layer_1" xmlns="http://www.w3.org/2000/svg" xmlns:xlink="http://www.w3.org/1999/xlink" x="0px" y="0px"
	 viewBox="0 0 600 600" style="enable-background:new 0 0 600 600;" xml:space="preserve">
<style type="text/css">
	.st0{fill:#84D1D7;}
</style>
<circle class="st0" cx="298" cy="298" r="221.25"/>
<g>
	<g>
		<path d="M252.17,235.78v4.79c0,4.55,1.33,6.66,4.9,6.66c3.61,0,4.45-3.13,4.45-6.4c0-6.53-1.44-8.42-9.75-14.33
			c-9.17-6.6-13.88-10.51-13.88-20.7c0-9.88,3.85-18.99,19.26-18.99c16.37,0,18.78,9.49,18.78,17.41v3.98h-14.78v-4.14
			c0-4.2-0.81-6.27-3.91-6.27c-2.89,0-3.82,2.11-3.82,6.03c0,4.17,0.89,6.22,7.62,10.69c11.97,7.99,16.26,12.48,16.26,23.87
			c0,10.83-4.35,19.76-20.52,19.76c-15.52,0-19.95-7.96-19.95-18.21v-4.15H252.17z"/>
		<path d="M298.64,240.64l-2,16.46h-15.96l11.5-69.18h23.33l11.78,69.18h-16.28l-2.24-16.46H298.64z M307.45,228.9
			c-1.16-8.85-2.78-22.32-3.54-28.94h-0.62c-0.28,4.82-2.21,20.39-3.29,28.94H307.45z"/>
		<path d="M333.11,187.92h20.86c13.51,0,20.21,6.08,20.21,18.33v4.23c0,12.12-5.38,19.43-20.81,19.43h-4.59v27.19h-15.67V187.92z
			 M348.78,219.12h2.53c5.94,0,7.2-2.83,7.2-8.59v-4.77c0-4.47-1.23-7.36-6.45-7.36h-3.28V219.12z"/>
		<path d="M175.62,365.04l-2,16.46h-15.96l11.5-69.18h23.33l11.78,69.18H188l-2.24-16.46H175.62z M184.43,353.3
			c-1.16-8.85-2.78-22.32-3.54-28.94h-0.62c-0.28,4.82-2.21,20.39-3.29,28.94H184.43z"/>
		<path d="M222.67,360.18v4.79c0,4.55,1.33,6.66,4.9,6.66c3.61,0,4.45-3.13,4.45-6.4c0-6.53-1.44-8.42-9.75-14.33
			c-9.17-6.6-13.88-10.51-13.88-20.7c0-9.88,3.85-18.99,19.26-18.99c16.37,0,18.78,9.49,18.78,17.41v3.98h-14.78v-4.14
			c0-4.2-0.81-6.27-3.91-6.27c-2.89,0-3.82,2.11-3.82,6.03c0,4.17,0.89,6.22,7.62,10.69c11.97,7.99,16.26,12.48,16.26,23.88
			c0,10.83-4.35,19.76-20.52,19.76c-15.52,0-19.95-7.96-19.95-18.21v-4.15H222.67z"/>
		<path d="M255.08,312.32h20.86c13.51,0,20.21,6.08,20.21,18.33v4.22c0,12.12-5.38,19.43-20.81,19.43h-4.59v27.2h-15.67V312.32z
			 M270.75,343.53h2.53c5.94,0,7.19-2.83,7.19-8.59v-4.77c0-4.47-1.23-7.36-6.45-7.36h-3.28V343.53z"/>
		<path d="M302.36,381.5v-16.75h15.58v16.75H302.36z"/>
		<path d="M326.78,381.5v-69.18h17.31c2.58,8.44,10.74,39.77,11.38,42.81h0.38c-0.87-9.2-1.42-21.79-1.42-31.44v-11.37h14.53v69.18
			h-17.48c-1.69-6.58-10.58-42.38-11.11-44.59h-0.42c0.61,8.14,1.09,21.9,1.09,32.78v11.81H326.78z"/>
		<path d="M411.08,350.95h-16.77v18.86h19.66l-1.88,11.7h-33.46v-69.18h33.33v11.76h-17.66v15.16h16.77V350.95z"/>
		<path d="M427.44,324.09h-11.85v-11.76h39.4v11.76h-11.93v57.41h-15.63V324.09z"/>
	</g>
</g>
</svg>
